/* XPM */
static char *fd8de04c681c4ac49d1b93b4a516820aToVGkTMwT2uCtWn3[] = {
/* columns rows colors chars-per-pixel */
"64 64 22 1 ",
"  c #423C3A",
". c #493E3E",
"X c #564444",
"o c #55534A",
"O c #6F5E5E",
"+ c #5D7E57",
"@ c #686463",
"# c #6F6D64",
"$ c #6C9465",
"% c #85AC7E",
"& c #928B8B",
"* c #B3AE81",
"= c #ADA5A5",
"- c #BDBBAA",
"; c #CBBCB4",
": c #A8D0A1",
"> c #F0EBAF",
", c #EEA9C2",
"< c #DBDFE4",
"1 c #F7F5E9",
"2 c #F9F9F9",
"3 c white",
/* pixels */
"::::::::::::::::::::::::::::::::::::::::::::::::::::::::::::::::",
"::::::::::::::::::::::::::::::::::::::::::::::::::::::::::::::::",
":::::::::::::::%:%::::::::::::::::::::::::::::::::::::::::::::::",
"::::::::::::::::%:::::::::::::::::::::::::::::::::::::::::::::::",
"::::::::::::::::::::::::::%::::::::::::::::::$::::::::::::::::::",
"::::::::::::$$$::::::::::::::::::::::::::$::$:::::::::::::::::::",
":::::::::::$%%%+:::::::::::::::$::::::::::$:$:::::::::::::::::::",
"::::%::::$$%%$%$$+::::::::::::::::::::::::$:::==::::::::::::::::",
"::%::%:::$%%%%$$$+:::::::::::::::::::::::::::&&&@:::::::%:%:::::",
":::%:%:$:$%%$$$+++::::2::::::::::::::::::::::@@@@@%::::::%::::::",
":::$:$:$::+++++++%:::2>2:::::::::::::::::::::%%%%%:=&:::::::::::",
":::::$:$:::%%%%%%::::$2:::::............::::::::::::::::::::::::",
":::::::::::::::::$::$:::::::............::::::::::::::::::::::::",
"::::::::::::::::::$:$:::....;;11111111;;....::::::::::::::::::::",
"::::::::::::::::::$:::::....;;11111111;;....::::::::::::::::$:::",
"::::::::::::::::::::....11111111111111111111..::::::::::::$:$:::",
"::::::::::::::::::::....11111111111111111111..::::::::::::$:$:::",
":::::::::$:$::::::..;;1111111111111111111111;;..::2:::::::::$:::",
"::::::::::$:::::::..;;1111111111111111111111;;..:2>2::::::::::%:",
"::::::::::::::::::....11111111..1111111111;;11;;..2:::::::::::::",
":::::%:%::::::::::....11111111..1111111111;;11;;..::::::::::::::",
"::::::%:::::::::..11..XO111111..XO11111111111111..:::2::::::::::",
"::::::::::::::::..11..XO111111..XO11111111111111..::2>2:::::::::",
"::::==::::::::::..1111111111111111111111;;1111;;11..:2::::::::::",
":::&&&@:::::::::..1111111111111111111111;;1111;;11..:::::::::::$",
":::@@@@@%::::::%..11;;111111;;1111111111..11;;11;;..:::::::$::$:",
":::%%%%%::::::::..11;;111111;;1111111111..11;;11;;..::::::::$:$:",
":$::::::::::::..==......;;;;  ;;;;1111..XO..;;;;;;..::::::::$:$:",
":$:$::::::::::..==......;;;;  ;;;;1111..XO..;;;;;;..:$::::::::::",
":$:$::::::::$:..==..XXXXXXXX....XX====&&..XO..;;;;..:$:$::::::::",
"::::::::$::$::..==..OOOOXXXX....XX====&&..XO..;;;;..:$:$::::::::",
":::::::::$:$::::....OOOOOOOO<<<<OX====&&..XO,,..;;..::::::::::::",
":::::::::$::::::....OOOOOOOO3333OX====&&..XX,,..;;..::::::::::::",
"::::::::::::::..==..,,OOOOOO....OX..&&..,,,,..;;..::::::::::::::",
"::::::::::::::..==..,,OOOOOO....OX..&&..,,,,..;;..:::::::%::::::",
"::::::::::::::..==....OOOOOOOOOOXX====&&....;;;;..::::::::::::::",
"::::::::::::::..==....OOOOOOOOXXXX====&&....;;;;..::::::::::::::",
"::::%:::::%:%:::....;;XXXXXXXX1111..==..;;;;;;..#-#::::::::::$:$",
"::%:%::::::%::::....;;........1111..==..;;;;;;..-*-#::::::::::$:",
":::%::::::::::..==..;;;;;;111111..======..;;..###-##::::::::::::",
"::::::::::::::..==..;;;;;;111111..======..;;..#######:::::::::::",
":::::::2::::::..&&......;;;;;;;;..&&..&&..;;..##o#o##+:$::::::::",
"::::::2>2:::::..&&......;;;;;;;;..&&..&&..;;..###o###:+:::::::::",
":::::::2::::::::..::$:%:..OO..;;;;..;;......#########:::::::::::",
"::::::::::::::::..%:$:##..XX..;;;;..;;......#########:::::::::::",
"::::::::::::::::::%:$#o#..XX....OOOX..#o#o#####o#####:::::::::::",
"::::::::::::::%:%:::$o##....##..XXXX..##o##o##o######:::::%:::::",
":::::::::::::::%:::::###....##..XXXX..######o#o#####::::::$:::::",
":::::::::::::::::::::###########....######-#o#o####:==:$::$:::::",
":::::$::::::::::::::::#####o#o##....#####-*-######:==&@@:$::$:$:",
":::$:$::::::::::::::::######o#############-######:&&&@@@@$:::$::",
":::$:$::::::::::::::::###############o#o#######:::@@@@@@@$::::::",
"::::::::::==:::::::::::###############o######:::%:%%%%%%%:::::::",
":::::::::&&&@@::::::::::###################::::::::::::::::2::::",
":::::::::@@@@@@%:::::::2#o##############::::::::::%:%:::::2>2:::",
":::::::::%%%%%%:=&::::2>2:::###o#o##:::::::::::::::%:::::::2::::",
":::::::::::::::::::::::2::::::::::::::::::::::::%:::::::::::::::",
":::::::::::::::::::::::::::::::::::::::::::::$:%:::::::::$$$::::",
"::::::%:%::::::%::::::::::::::::::::::::::%::$:%::%:::::$%%%$:::",
":::::::%:::::::$::::::::::$:$::::::::::::::%:$:%:%::::$$%%$%$++:",
"::::::::::::%::$:%:::::::::$:::::::%:::::::%:$:%:$::::$%%%%$$$+:",
":::::::::::::$:$:%:::::::::::::::::::::::::::$:::$::::+%%%$$+++%",
":::::::::::::$:$:%:::::::::::::::::::::::::::::::::::::+++++++%%",
":::::::::::::::::::::::::::::::::::::::::::::::::::::::%%%%%%%%:"
};
