/* XPM */
static char *_0cfdb6154a349fcf7fa5ab7d7223c73wbHgxCfqKp91bCkI[] = {
/* columns rows colors chars-per-pixel */
"128 128 12 1 ",
"  c None",
". c #1C0F1A",
"X c #3F3034",
"o c #441220",
"O c #513E42",
"+ c #646E4A",
"@ c #8A7679",
"# c #C77047",
"$ c #9B9A47",
"% c #D5909F",
"& c #E5A0AF",
"* c #F8E3CF",
/* pixels */
"                                                                                                                                ",
"                                                                                                                                ",
"                                                                                                                                ",
"                                                                                                                                ",
"                                                                                                                                ",
"                                                                                                                                ",
"                                                                                                                                ",
"                                                                                                                                ",
"                                                                                                                                ",
"                                                                                                                                ",
"                                                                                                                                ",
"                                                                                                                                ",
"                                                                                                                                ",
"                                                                                                                                ",
"                                                                                                                                ",
"                                                                                                                                ",
"                                                                                                &&&&&&&&&&&&&&&&                ",
"                                                                                                &&&&&&&&&&&&&&&&                ",
"                                                                                                &&&&&&&&&&&&&&&&                ",
"                                                                                                &&&&&&&&&&&&&&&&                ",
"                                                                                                &&&&&&&&&&&&&&&&                ",
"                                                                                                &&&&&&&&&&&&&&&&                ",
"                                                                                                &&&&&&&&&&&&&&&&                ",
"                                                                                                &&&&&&&&&&&&&&&&                ",
"                                                                                                &&&&&&&&&&&&&&&&                ",
"                                                                                                &&&&&&&&&&&&&&&&                ",
"                                                                                                &&&&&&&&&&&&&&&&                ",
"                                                                                                &&&&&&&&&&&&&&&&                ",
"                                                                                                &&&&&&&&&&&&&&&&                ",
"                                                                                                &&&&&&&&&&&&&&&&                ",
"                                                                                                &&&&&&&&&&&&&&&&                ",
"                                                                                                &&&&&&&&&&&&&&&&                ",
"                                                ................................................................%%%%%%%%%%%%%%%%",
"                                                ................................................................%%%%%%%%%%%%%%%%",
"                                                ................................................................%%%%%%%%%%%%%%%%",
"                                                ................................................................%%%%%%%%%%%%%%%%",
"                                                ................................................................%%%%%%%%%%%%%%%%",
"                                                ................................................................%%%%%%%%%%%%%%%%",
"                                                ................................................................%%%%%%%%%%%%%%%%",
"                                                ................................................................%%%%%%%%%%%%%%%%",
"                                                ................................................................%%%%%%%%%%%%%%%%",
"                                                ................................................................%%%%%%%%%%%%%%%%",
"                                                ................................................................%%%%%%%%%%%%%%%%",
"                                                ................................................................%%%%%%%%%%%%%%%%",
"                                                ................................................................%%%%%%%%%%%%%%%%",
"                                                ................................................................%%%%%%%%%%%%%%%%",
"                                                ................................................................%%%%%%%%%%%%%%%%",
"                                                ................................................................%%%%%%%%%%%%%%%%",
"                                ................................************************************************                ",
"                                ................................************************************************                ",
"                                ................................************************************************                ",
"                                ................................************************************************                ",
"                                ................................************************************************                ",
"                                ................................************************************************                ",
"                                ................................************************************************                ",
"                                ................................************************************************                ",
"                                ................................************************************************                ",
"                                ................................************************************************                ",
"                                ................................************************************************                ",
"                                ................................************************************************                ",
"                                ................................************************************************                ",
"                                ................................************************************************                ",
"                                ................................************************************************                ",
"                                ................................************************************************                ",
"OOOOOOOOOOOOOOOO@@@@@@@@@@@@@@@@................................%%%%%%%%%%%%%%%%****************%%%%%%%%%%%%%%%%OOOOOOOOOOOOOOOO",
"OOOOOOOOOOOOOOOO@@@@@@@@@@@@@@@@................................%%%%%%%%%%%%%%%%****************%%%%%%%%%%%%%%%%OOOOOOOOOOOOOOOO",
"OOOOOOOOOOOOOOOO@@@@@@@@@@@@@@@@................................%%%%%%%%%%%%%%%%****************%%%%%%%%%%%%%%%%OOOOOOOOOOOOOOOO",
"OOOOOOOOOOOOOOOO@@@@@@@@@@@@@@@@................................%%%%%%%%%%%%%%%%****************%%%%%%%%%%%%%%%%OOOOOOOOOOOOOOOO",
"OOOOOOOOOOOOOOOO@@@@@@@@@@@@@@@@................................%%%%%%%%%%%%%%%%****************%%%%%%%%%%%%%%%%OOOOOOOOOOOOOOOO",
"OOOOOOOOOOOOOOOO@@@@@@@@@@@@@@@@................................%%%%%%%%%%%%%%%%****************%%%%%%%%%%%%%%%%OOOOOOOOOOOOOOOO",
"OOOOOOOOOOOOOOOO@@@@@@@@@@@@@@@@................................%%%%%%%%%%%%%%%%****************%%%%%%%%%%%%%%%%OOOOOOOOOOOOOOOO",
"OOOOOOOOOOOOOOOO@@@@@@@@@@@@@@@@................................%%%%%%%%%%%%%%%%****************%%%%%%%%%%%%%%%%OOOOOOOOOOOOOOOO",
"OOOOOOOOOOOOOOOO@@@@@@@@@@@@@@@@................................%%%%%%%%%%%%%%%%****************%%%%%%%%%%%%%%%%OOOOOOOOOOOOOOOO",
"OOOOOOOOOOOOOOOO@@@@@@@@@@@@@@@@................................%%%%%%%%%%%%%%%%****************%%%%%%%%%%%%%%%%OOOOOOOOOOOOOOOO",
"OOOOOOOOOOOOOOOO@@@@@@@@@@@@@@@@................................%%%%%%%%%%%%%%%%****************%%%%%%%%%%%%%%%%OOOOOOOOOOOOOOOO",
"OOOOOOOOOOOOOOOO@@@@@@@@@@@@@@@@................................%%%%%%%%%%%%%%%%****************%%%%%%%%%%%%%%%%OOOOOOOOOOOOOOOO",
"OOOOOOOOOOOOOOOO@@@@@@@@@@@@@@@@................................%%%%%%%%%%%%%%%%****************%%%%%%%%%%%%%%%%OOOOOOOOOOOOOOOO",
"OOOOOOOOOOOOOOOO@@@@@@@@@@@@@@@@................................%%%%%%%%%%%%%%%%****************%%%%%%%%%%%%%%%%OOOOOOOOOOOOOOOO",
"OOOOOOOOOOOOOOOO@@@@@@@@@@@@@@@@................................%%%%%%%%%%%%%%%%****************%%%%%%%%%%%%%%%%OOOOOOOOOOOOOOOO",
"OOOOOOOOOOOOOOOO@@@@@@@@@@@@@@@@................................%%%%%%%%%%%%%%%%****************%%%%%%%%%%%%%%%%OOOOOOOOOOOOOOOO",
"OOOOOOOOOOOOOOOOOOOOOOOOOOOOOOOO################................$$$$$$$$$$$$$$$$++++++++++++++++$$$$$$$$$$$$$$$$OOOOOOOOOOOOOOOO",
"OOOOOOOOOOOOOOOOOOOOOOOOOOOOOOOO################................$$$$$$$$$$$$$$$$++++++++++++++++$$$$$$$$$$$$$$$$OOOOOOOOOOOOOOOO",
"OOOOOOOOOOOOOOOOOOOOOOOOOOOOOOOO################................$$$$$$$$$$$$$$$$++++++++++++++++$$$$$$$$$$$$$$$$OOOOOOOOOOOOOOOO",
"OOOOOOOOOOOOOOOOOOOOOOOOOOOOOOOO################................$$$$$$$$$$$$$$$$++++++++++++++++$$$$$$$$$$$$$$$$OOOOOOOOOOOOOOOO",
"OOOOOOOOOOOOOOOOOOOOOOOOOOOOOOOO################................$$$$$$$$$$$$$$$$++++++++++++++++$$$$$$$$$$$$$$$$OOOOOOOOOOOOOOOO",
"OOOOOOOOOOOOOOOOOOOOOOOOOOOOOOOO################................$$$$$$$$$$$$$$$$++++++++++++++++$$$$$$$$$$$$$$$$OOOOOOOOOOOOOOOO",
"OOOOOOOOOOOOOOOOOOOOOOOOOOOOOOOO################................$$$$$$$$$$$$$$$$++++++++++++++++$$$$$$$$$$$$$$$$OOOOOOOOOOOOOOOO",
"OOOOOOOOOOOOOOOOOOOOOOOOOOOOOOOO################................$$$$$$$$$$$$$$$$++++++++++++++++$$$$$$$$$$$$$$$$OOOOOOOOOOOOOOOO",
"OOOOOOOOOOOOOOOOOOOOOOOOOOOOOOOO################................$$$$$$$$$$$$$$$$++++++++++++++++$$$$$$$$$$$$$$$$OOOOOOOOOOOOOOOO",
"OOOOOOOOOOOOOOOOOOOOOOOOOOOOOOOO################................$$$$$$$$$$$$$$$$++++++++++++++++$$$$$$$$$$$$$$$$OOOOOOOOOOOOOOOO",
"OOOOOOOOOOOOOOOOOOOOOOOOOOOOOOOO################................$$$$$$$$$$$$$$$$++++++++++++++++$$$$$$$$$$$$$$$$OOOOOOOOOOOOOOOO",
"OOOOOOOOOOOOOOOOOOOOOOOOOOOOOOOO################................$$$$$$$$$$$$$$$$++++++++++++++++$$$$$$$$$$$$$$$$OOOOOOOOOOOOOOOO",
"OOOOOOOOOOOOOOOOOOOOOOOOOOOOOOOO################................$$$$$$$$$$$$$$$$++++++++++++++++$$$$$$$$$$$$$$$$OOOOOOOOOOOOOOOO",
"OOOOOOOOOOOOOOOOOOOOOOOOOOOOOOOO################................$$$$$$$$$$$$$$$$++++++++++++++++$$$$$$$$$$$$$$$$OOOOOOOOOOOOOOOO",
"OOOOOOOOOOOOOOOOOOOOOOOOOOOOOOOO################................$$$$$$$$$$$$$$$$++++++++++++++++$$$$$$$$$$$$$$$$OOOOOOOOOOOOOOOO",
"OOOOOOOOOOOOOOOOOOOOOOOOOOOOOOOO################................$$$$$$$$$$$$$$$$++++++++++++++++$$$$$$$$$$$$$$$$OOOOOOOOOOOOOOOO",
"XXXXXXXXXXXXXXXXOOOOOOOOOOOOOOOOOOOOOOOOOOOOOOOOXXXXXXXXXXXXXXXXXXXXXXXXXXXXXXXX&&&&&&&&&&&&&&&&OOOOOOOOOOOOOOOOXXXXXXXXXXXXXXXX",
"XXXXXXXXXXXXXXXXOOOOOOOOOOOOOOOOOOOOOOOOOOOOOOOOXXXXXXXXXXXXXXXXXXXXXXXXXXXXXXXX&&&&&&&&&&&&&&&&OOOOOOOOOOOOOOOOXXXXXXXXXXXXXXXX",
"XXXXXXXXXXXXXXXXOOOOOOOOOOOOOOOOOOOOOOOOOOOOOOOOXXXXXXXXXXXXXXXXXXXXXXXXXXXXXXXX&&&&&&&&&&&&&&&&OOOOOOOOOOOOOOOOXXXXXXXXXXXXXXXX",
"XXXXXXXXXXXXXXXXOOOOOOOOOOOOOOOOOOOOOOOOOOOOOOOOXXXXXXXXXXXXXXXXXXXXXXXXXXXXXXXX&&&&&&&&&&&&&&&&OOOOOOOOOOOOOOOOXXXXXXXXXXXXXXXX",
"XXXXXXXXXXXXXXXXOOOOOOOOOOOOOOOOOOOOOOOOOOOOOOOOXXXXXXXXXXXXXXXXXXXXXXXXXXXXXXXX&&&&&&&&&&&&&&&&OOOOOOOOOOOOOOOOXXXXXXXXXXXXXXXX",
"XXXXXXXXXXXXXXXXOOOOOOOOOOOOOOOOOOOOOOOOOOOOOOOOXXXXXXXXXXXXXXXXXXXXXXXXXXXXXXXX&&&&&&&&&&&&&&&&OOOOOOOOOOOOOOOOXXXXXXXXXXXXXXXX",
"XXXXXXXXXXXXXXXXOOOOOOOOOOOOOOOOOOOOOOOOOOOOOOOOXXXXXXXXXXXXXXXXXXXXXXXXXXXXXXXX&&&&&&&&&&&&&&&&OOOOOOOOOOOOOOOOXXXXXXXXXXXXXXXX",
"XXXXXXXXXXXXXXXXOOOOOOOOOOOOOOOOOOOOOOOOOOOOOOOOXXXXXXXXXXXXXXXXXXXXXXXXXXXXXXXX&&&&&&&&&&&&&&&&OOOOOOOOOOOOOOOOXXXXXXXXXXXXXXXX",
"XXXXXXXXXXXXXXXXOOOOOOOOOOOOOOOOOOOOOOOOOOOOOOOOXXXXXXXXXXXXXXXXXXXXXXXXXXXXXXXX&&&&&&&&&&&&&&&&OOOOOOOOOOOOOOOOXXXXXXXXXXXXXXXX",
"XXXXXXXXXXXXXXXXOOOOOOOOOOOOOOOOOOOOOOOOOOOOOOOOXXXXXXXXXXXXXXXXXXXXXXXXXXXXXXXX&&&&&&&&&&&&&&&&OOOOOOOOOOOOOOOOXXXXXXXXXXXXXXXX",
"XXXXXXXXXXXXXXXXOOOOOOOOOOOOOOOOOOOOOOOOOOOOOOOOXXXXXXXXXXXXXXXXXXXXXXXXXXXXXXXX&&&&&&&&&&&&&&&&OOOOOOOOOOOOOOOOXXXXXXXXXXXXXXXX",
"XXXXXXXXXXXXXXXXOOOOOOOOOOOOOOOOOOOOOOOOOOOOOOOOXXXXXXXXXXXXXXXXXXXXXXXXXXXXXXXX&&&&&&&&&&&&&&&&OOOOOOOOOOOOOOOOXXXXXXXXXXXXXXXX",
"XXXXXXXXXXXXXXXXOOOOOOOOOOOOOOOOOOOOOOOOOOOOOOOOXXXXXXXXXXXXXXXXXXXXXXXXXXXXXXXX&&&&&&&&&&&&&&&&OOOOOOOOOOOOOOOOXXXXXXXXXXXXXXXX",
"XXXXXXXXXXXXXXXXOOOOOOOOOOOOOOOOOOOOOOOOOOOOOOOOXXXXXXXXXXXXXXXXXXXXXXXXXXXXXXXX&&&&&&&&&&&&&&&&OOOOOOOOOOOOOOOOXXXXXXXXXXXXXXXX",
"XXXXXXXXXXXXXXXXOOOOOOOOOOOOOOOOOOOOOOOOOOOOOOOOXXXXXXXXXXXXXXXXXXXXXXXXXXXXXXXX&&&&&&&&&&&&&&&&OOOOOOOOOOOOOOOOXXXXXXXXXXXXXXXX",
"XXXXXXXXXXXXXXXXOOOOOOOOOOOOOOOOOOOOOOOOOOOOOOOOXXXXXXXXXXXXXXXXXXXXXXXXXXXXXXXX&&&&&&&&&&&&&&&&OOOOOOOOOOOOOOOOXXXXXXXXXXXXXXXX",
"                                XXXXXXXXXXXXXXXXoooooooooooooooo%%%%%%%%%%%%%%%%@@@@@@@@@@@@@@@@                                ",
"                                XXXXXXXXXXXXXXXXoooooooooooooooo%%%%%%%%%%%%%%%%@@@@@@@@@@@@@@@@                                ",
"                                XXXXXXXXXXXXXXXXoooooooooooooooo%%%%%%%%%%%%%%%%@@@@@@@@@@@@@@@@                                ",
"                                XXXXXXXXXXXXXXXXoooooooooooooooo%%%%%%%%%%%%%%%%@@@@@@@@@@@@@@@@                                ",
"                                XXXXXXXXXXXXXXXXoooooooooooooooo%%%%%%%%%%%%%%%%@@@@@@@@@@@@@@@@                                ",
"                                XXXXXXXXXXXXXXXXoooooooooooooooo%%%%%%%%%%%%%%%%@@@@@@@@@@@@@@@@                                ",
"                                XXXXXXXXXXXXXXXXoooooooooooooooo%%%%%%%%%%%%%%%%@@@@@@@@@@@@@@@@                                ",
"                                XXXXXXXXXXXXXXXXoooooooooooooooo%%%%%%%%%%%%%%%%@@@@@@@@@@@@@@@@                                ",
"                                XXXXXXXXXXXXXXXXoooooooooooooooo%%%%%%%%%%%%%%%%@@@@@@@@@@@@@@@@                                ",
"                                XXXXXXXXXXXXXXXXoooooooooooooooo%%%%%%%%%%%%%%%%@@@@@@@@@@@@@@@@                                ",
"                                XXXXXXXXXXXXXXXXoooooooooooooooo%%%%%%%%%%%%%%%%@@@@@@@@@@@@@@@@                                ",
"                                XXXXXXXXXXXXXXXXoooooooooooooooo%%%%%%%%%%%%%%%%@@@@@@@@@@@@@@@@                                ",
"                                XXXXXXXXXXXXXXXXoooooooooooooooo%%%%%%%%%%%%%%%%@@@@@@@@@@@@@@@@                                ",
"                                XXXXXXXXXXXXXXXXoooooooooooooooo%%%%%%%%%%%%%%%%@@@@@@@@@@@@@@@@                                ",
"                                XXXXXXXXXXXXXXXXoooooooooooooooo%%%%%%%%%%%%%%%%@@@@@@@@@@@@@@@@                                ",
"                                XXXXXXXXXXXXXXXXoooooooooooooooo%%%%%%%%%%%%%%%%@@@@@@@@@@@@@@@@                                "
};
