/* XPM */
static char *nezuko[] = {
/* columns rows colors chars-per-pixel */
"128 128 11 1 ",
"  c None",
". c #1C0F1A",
"X c #24161F",
"o c #3F3034",
"O c #513E42",
"+ c #646E4A",
"@ c #C77047",
"# c #9B9A47",
"$ c #D5909F",
"% c #E5A0AF",
"& c #F8E3CF",
/* pixels */
"                                                                                                                                ",
"                                                                                                                                ",
"                                                                                                                                ",
"                                                                                                                                ",
"                                                                                                                                ",
"                                                                                                                                ",
"                                                                                                                                ",
"                                                                                                                                ",
"                                                                                                                                ",
"                                                                                                                                ",
"                                                                                                                                ",
"                                                                                                                                ",
"                                                                                                                                ",
"                                                                                                                                ",
"                                                                                                                                ",
"                                                                                                                                ",
"                                                                                                %%%%%%%%%%%%%%%%                ",
"                                                                                                %%%%%%%%%%%%%%%%                ",
"                                                                                                %%%%%%%%%%%%%%%%                ",
"                                                                                                %%%%%%%%%%%%%%%%                ",
"                                                                                                %%%%%%%%%%%%%%%%                ",
"                                                                                                %%%%%%%%%%%%%%%%                ",
"                                                                                                %%%%%%%%%%%%%%%%                ",
"                                                                                                %%%%%%%%%%%%%%%%                ",
"                                                                                                %%%%%%%%%%%%%%%%                ",
"                                                                                                %%%%%%%%%%%%%%%%                ",
"                                                                                                %%%%%%%%%%%%%%%%                ",
"                                                                                                %%%%%%%%%%%%%%%%                ",
"                                                                                                %%%%%%%%%%%%%%%%                ",
"                                                                                                %%%%%%%%%%%%%%%%                ",
"                                                                                                %%%%%%%%%%%%%%%%                ",
"                                                                                                %%%%%%%%%%%%%%%%                ",
"                                                ................................................................$$$$$$$$$$$$$$$$",
"                                                ................................................................$$$$$$$$$$$$$$$$",
"                                                ................................................................$$$$$$$$$$$$$$$$",
"                                                ................................................................$$$$$$$$$$$$$$$$",
"                                                ................................................................$$$$$$$$$$$$$$$$",
"                                                ................................................................$$$$$$$$$$$$$$$$",
"                                                ................................................................$$$$$$$$$$$$$$$$",
"                                                ................................................................$$$$$$$$$$$$$$$$",
"                                                ................................................................$$$$$$$$$$$$$$$$",
"                                                ................................................................$$$$$$$$$$$$$$$$",
"                                                ................................................................$$$$$$$$$$$$$$$$",
"                                                ................................................................$$$$$$$$$$$$$$$$",
"                                                ................................................................$$$$$$$$$$$$$$$$",
"                                                ................................................................$$$$$$$$$$$$$$$$",
"                                                ................................................................$$$$$$$$$$$$$$$$",
"                                                ................................................................$$$$$$$$$$$$$$$$",
"                                ................................&&&&&&&&&&&&&&&&&&&&&&&&&&&&&&&&&&&&&&&&&&&&&&&&                ",
"                                ................................&&&&&&&&&&&&&&&&&&&&&&&&&&&&&&&&&&&&&&&&&&&&&&&&                ",
"                                ................................&&&&&&&&&&&&&&&&&&&&&&&&&&&&&&&&&&&&&&&&&&&&&&&&                ",
"                                ................................&&&&&&&&&&&&&&&&&&&&&&&&&&&&&&&&&&&&&&&&&&&&&&&&                ",
"                                ................................&&&&&&&&&&&&&&&&&&&&&&&&&&&&&&&&&&&&&&&&&&&&&&&&                ",
"                                ................................&&&&&&&&&&&&&&&&&&&&&&&&&&&&&&&&&&&&&&&&&&&&&&&&                ",
"                                ................................&&&&&&&&&&&&&&&&&&&&&&&&&&&&&&&&&&&&&&&&&&&&&&&&                ",
"                                ................................&&&&&&&&&&&&&&&&&&&&&&&&&&&&&&&&&&&&&&&&&&&&&&&&                ",
"                                ................................&&&&&&&&&&&&&&&&&&&&&&&&&&&&&&&&&&&&&&&&&&&&&&&&                ",
"                                ................................&&&&&&&&&&&&&&&&&&&&&&&&&&&&&&&&&&&&&&&&&&&&&&&&                ",
"                                ................................&&&&&&&&&&&&&&&&&&&&&&&&&&&&&&&&&&&&&&&&&&&&&&&&                ",
"                                ................................&&&&&&&&&&&&&&&&&&&&&&&&&&&&&&&&&&&&&&&&&&&&&&&&                ",
"                                ................................&&&&&&&&&&&&&&&&&&&&&&&&&&&&&&&&&&&&&&&&&&&&&&&&                ",
"                                ................................&&&&&&&&&&&&&&&&&&&&&&&&&&&&&&&&&&&&&&&&&&&&&&&&                ",
"                                ................................&&&&&&&&&&&&&&&&&&&&&&&&&&&&&&&&&&&&&&&&&&&&&&&&                ",
"                                ................................&&&&&&&&&&&&&&&&&&&&&&&&&&&&&&&&&&&&&&&&&&&&&&&&                ",
"                @@@@@@@@@@@@@@@@................................$$$$$$$$$$$$$$$$&&&&&&&&&&&&&&&&$$$$$$$$$$$$$$$$                ",
"                @@@@@@@@@@@@@@@@................................$$$$$$$$$$$$$$$$&&&&&&&&&&&&&&&&$$$$$$$$$$$$$$$$                ",
"                @@@@@@@@@@@@@@@@................................$$$$$$$$$$$$$$$$&&&&&&&&&&&&&&&&$$$$$$$$$$$$$$$$                ",
"                @@@@@@@@@@@@@@@@................................$$$$$$$$$$$$$$$$&&&&&&&&&&&&&&&&$$$$$$$$$$$$$$$$                ",
"                @@@@@@@@@@@@@@@@................................$$$$$$$$$$$$$$$$&&&&&&&&&&&&&&&&$$$$$$$$$$$$$$$$                ",
"                @@@@@@@@@@@@@@@@................................$$$$$$$$$$$$$$$$&&&&&&&&&&&&&&&&$$$$$$$$$$$$$$$$                ",
"                @@@@@@@@@@@@@@@@................................$$$$$$$$$$$$$$$$&&&&&&&&&&&&&&&&$$$$$$$$$$$$$$$$                ",
"                @@@@@@@@@@@@@@@@................................$$$$$$$$$$$$$$$$&&&&&&&&&&&&&&&&$$$$$$$$$$$$$$$$                ",
"                @@@@@@@@@@@@@@@@................................$$$$$$$$$$$$$$$$&&&&&&&&&&&&&&&&$$$$$$$$$$$$$$$$                ",
"                @@@@@@@@@@@@@@@@................................$$$$$$$$$$$$$$$$&&&&&&&&&&&&&&&&$$$$$$$$$$$$$$$$                ",
"                @@@@@@@@@@@@@@@@................................$$$$$$$$$$$$$$$$&&&&&&&&&&&&&&&&$$$$$$$$$$$$$$$$                ",
"                @@@@@@@@@@@@@@@@................................$$$$$$$$$$$$$$$$&&&&&&&&&&&&&&&&$$$$$$$$$$$$$$$$                ",
"                @@@@@@@@@@@@@@@@................................$$$$$$$$$$$$$$$$&&&&&&&&&&&&&&&&$$$$$$$$$$$$$$$$                ",
"                @@@@@@@@@@@@@@@@................................$$$$$$$$$$$$$$$$&&&&&&&&&&&&&&&&$$$$$$$$$$$$$$$$                ",
"                @@@@@@@@@@@@@@@@................................$$$$$$$$$$$$$$$$&&&&&&&&&&&&&&&&$$$$$$$$$$$$$$$$                ",
"                @@@@@@@@@@@@@@@@................................$$$$$$$$$$$$$$$$&&&&&&&&&&&&&&&&$$$$$$$$$$$$$$$$                ",
"OOOOOOOOOOOOOOOOOOOOOOOOOOOOOOOO@@@@@@@@@@@@@@@@................################++++++++++++++++################OOOOOOOOOOOOOOOO",
"OOOOOOOOOOOOOOOOOOOOOOOOOOOOOOOO@@@@@@@@@@@@@@@@................################++++++++++++++++################OOOOOOOOOOOOOOOO",
"OOOOOOOOOOOOOOOOOOOOOOOOOOOOOOOO@@@@@@@@@@@@@@@@................################++++++++++++++++################OOOOOOOOOOOOOOOO",
"OOOOOOOOOOOOOOOOOOOOOOOOOOOOOOOO@@@@@@@@@@@@@@@@................################++++++++++++++++################OOOOOOOOOOOOOOOO",
"OOOOOOOOOOOOOOOOOOOOOOOOOOOOOOOO@@@@@@@@@@@@@@@@................################++++++++++++++++################OOOOOOOOOOOOOOOO",
"OOOOOOOOOOOOOOOOOOOOOOOOOOOOOOOO@@@@@@@@@@@@@@@@................################++++++++++++++++################OOOOOOOOOOOOOOOO",
"OOOOOOOOOOOOOOOOOOOOOOOOOOOOOOOO@@@@@@@@@@@@@@@@................################++++++++++++++++################OOOOOOOOOOOOOOOO",
"OOOOOOOOOOOOOOOOOOOOOOOOOOOOOOOO@@@@@@@@@@@@@@@@................################++++++++++++++++################OOOOOOOOOOOOOOOO",
"OOOOOOOOOOOOOOOOOOOOOOOOOOOOOOOO@@@@@@@@@@@@@@@@................################++++++++++++++++################OOOOOOOOOOOOOOOO",
"OOOOOOOOOOOOOOOOOOOOOOOOOOOOOOOO@@@@@@@@@@@@@@@@................################++++++++++++++++################OOOOOOOOOOOOOOOO",
"OOOOOOOOOOOOOOOOOOOOOOOOOOOOOOOO@@@@@@@@@@@@@@@@................################++++++++++++++++################OOOOOOOOOOOOOOOO",
"OOOOOOOOOOOOOOOOOOOOOOOOOOOOOOOO@@@@@@@@@@@@@@@@................################++++++++++++++++################OOOOOOOOOOOOOOOO",
"OOOOOOOOOOOOOOOOOOOOOOOOOOOOOOOO@@@@@@@@@@@@@@@@................################++++++++++++++++################OOOOOOOOOOOOOOOO",
"OOOOOOOOOOOOOOOOOOOOOOOOOOOOOOOO@@@@@@@@@@@@@@@@................################++++++++++++++++################OOOOOOOOOOOOOOOO",
"OOOOOOOOOOOOOOOOOOOOOOOOOOOOOOOO@@@@@@@@@@@@@@@@................################++++++++++++++++################OOOOOOOOOOOOOOOO",
"OOOOOOOOOOOOOOOOOOOOOOOOOOOOOOOO@@@@@@@@@@@@@@@@................################++++++++++++++++################OOOOOOOOOOOOOOOO",
"ooooooooooooooooOOOOOOOOOOOOOOOOOOOOOOOOOOOOOOOOoooooooooooooooooooooooooooooooo%%%%%%%%%%%%%%%%OOOOOOOOOOOOOOOOoooooooooooooooo",
"ooooooooooooooooOOOOOOOOOOOOOOOOOOOOOOOOOOOOOOOOoooooooooooooooooooooooooooooooo%%%%%%%%%%%%%%%%OOOOOOOOOOOOOOOOoooooooooooooooo",
"ooooooooooooooooOOOOOOOOOOOOOOOOOOOOOOOOOOOOOOOOoooooooooooooooooooooooooooooooo%%%%%%%%%%%%%%%%OOOOOOOOOOOOOOOOoooooooooooooooo",
"ooooooooooooooooOOOOOOOOOOOOOOOOOOOOOOOOOOOOOOOOoooooooooooooooooooooooooooooooo%%%%%%%%%%%%%%%%OOOOOOOOOOOOOOOOoooooooooooooooo",
"ooooooooooooooooOOOOOOOOOOOOOOOOOOOOOOOOOOOOOOOOoooooooooooooooooooooooooooooooo%%%%%%%%%%%%%%%%OOOOOOOOOOOOOOOOoooooooooooooooo",
"ooooooooooooooooOOOOOOOOOOOOOOOOOOOOOOOOOOOOOOOOoooooooooooooooooooooooooooooooo%%%%%%%%%%%%%%%%OOOOOOOOOOOOOOOOoooooooooooooooo",
"ooooooooooooooooOOOOOOOOOOOOOOOOOOOOOOOOOOOOOOOOoooooooooooooooooooooooooooooooo%%%%%%%%%%%%%%%%OOOOOOOOOOOOOOOOoooooooooooooooo",
"ooooooooooooooooOOOOOOOOOOOOOOOOOOOOOOOOOOOOOOOOoooooooooooooooooooooooooooooooo%%%%%%%%%%%%%%%%OOOOOOOOOOOOOOOOoooooooooooooooo",
"ooooooooooooooooOOOOOOOOOOOOOOOOOOOOOOOOOOOOOOOOoooooooooooooooooooooooooooooooo%%%%%%%%%%%%%%%%OOOOOOOOOOOOOOOOoooooooooooooooo",
"ooooooooooooooooOOOOOOOOOOOOOOOOOOOOOOOOOOOOOOOOoooooooooooooooooooooooooooooooo%%%%%%%%%%%%%%%%OOOOOOOOOOOOOOOOoooooooooooooooo",
"ooooooooooooooooOOOOOOOOOOOOOOOOOOOOOOOOOOOOOOOOoooooooooooooooooooooooooooooooo%%%%%%%%%%%%%%%%OOOOOOOOOOOOOOOOoooooooooooooooo",
"ooooooooooooooooOOOOOOOOOOOOOOOOOOOOOOOOOOOOOOOOoooooooooooooooooooooooooooooooo%%%%%%%%%%%%%%%%OOOOOOOOOOOOOOOOoooooooooooooooo",
"ooooooooooooooooOOOOOOOOOOOOOOOOOOOOOOOOOOOOOOOOoooooooooooooooooooooooooooooooo%%%%%%%%%%%%%%%%OOOOOOOOOOOOOOOOoooooooooooooooo",
"ooooooooooooooooOOOOOOOOOOOOOOOOOOOOOOOOOOOOOOOOoooooooooooooooooooooooooooooooo%%%%%%%%%%%%%%%%OOOOOOOOOOOOOOOOoooooooooooooooo",
"ooooooooooooooooOOOOOOOOOOOOOOOOOOOOOOOOOOOOOOOOoooooooooooooooooooooooooooooooo%%%%%%%%%%%%%%%%OOOOOOOOOOOOOOOOoooooooooooooooo",
"ooooooooooooooooOOOOOOOOOOOOOOOOOOOOOOOOOOOOOOOOoooooooooooooooooooooooooooooooo%%%%%%%%%%%%%%%%OOOOOOOOOOOOOOOOoooooooooooooooo",
"                                oooooooooooooooo$$$$$$$$$$$$$$$$$$$$$$$$$$$$$$$$XXXXXXXXXXXXXXXX                                ",
"                                oooooooooooooooo$$$$$$$$$$$$$$$$$$$$$$$$$$$$$$$$XXXXXXXXXXXXXXXX                                ",
"                                oooooooooooooooo$$$$$$$$$$$$$$$$$$$$$$$$$$$$$$$$XXXXXXXXXXXXXXXX                                ",
"                                oooooooooooooooo$$$$$$$$$$$$$$$$$$$$$$$$$$$$$$$$XXXXXXXXXXXXXXXX                                ",
"                                oooooooooooooooo$$$$$$$$$$$$$$$$$$$$$$$$$$$$$$$$XXXXXXXXXXXXXXXX                                ",
"                                oooooooooooooooo$$$$$$$$$$$$$$$$$$$$$$$$$$$$$$$$XXXXXXXXXXXXXXXX                                ",
"                                oooooooooooooooo$$$$$$$$$$$$$$$$$$$$$$$$$$$$$$$$XXXXXXXXXXXXXXXX                                ",
"                                oooooooooooooooo$$$$$$$$$$$$$$$$$$$$$$$$$$$$$$$$XXXXXXXXXXXXXXXX                                ",
"                                oooooooooooooooo$$$$$$$$$$$$$$$$$$$$$$$$$$$$$$$$XXXXXXXXXXXXXXXX                                ",
"                                oooooooooooooooo$$$$$$$$$$$$$$$$$$$$$$$$$$$$$$$$XXXXXXXXXXXXXXXX                                ",
"                                oooooooooooooooo$$$$$$$$$$$$$$$$$$$$$$$$$$$$$$$$XXXXXXXXXXXXXXXX                                ",
"                                oooooooooooooooo$$$$$$$$$$$$$$$$$$$$$$$$$$$$$$$$XXXXXXXXXXXXXXXX                                ",
"                                oooooooooooooooo$$$$$$$$$$$$$$$$$$$$$$$$$$$$$$$$XXXXXXXXXXXXXXXX                                ",
"                                oooooooooooooooo$$$$$$$$$$$$$$$$$$$$$$$$$$$$$$$$XXXXXXXXXXXXXXXX                                ",
"                                oooooooooooooooo$$$$$$$$$$$$$$$$$$$$$$$$$$$$$$$$XXXXXXXXXXXXXXXX                                ",
"                                oooooooooooooooo$$$$$$$$$$$$$$$$$$$$$$$$$$$$$$$$XXXXXXXXXXXXXXXX                                "
};
