/* XPM */
static char *_c4f226d67804fc3b4b4018fbacd9a32MEtljrWG4qSz66Ng[] = {
/* columns rows colors chars-per-pixel */
"64 64 21 1 ",
"  c #332929",
". c #372C2C",
"X c #493E3E",
"o c #55534A",
"O c #645353",
"+ c #6F5E5E",
"@ c #5D7E57",
"# c #686463",
"$ c #6F6D64",
"% c #835B5B",
"& c #6C9465",
"* c #85AC7E",
"= c #928B8B",
"- c #B3AE81",
"; c #ADA5A5",
": c #BDBBAA",
"> c #C6BEBE",
", c #A8D0A1",
"< c #F0EBAF",
"1 c #E4DCE3",
"2 c #F9F9F9",
/* pixels */
",,,,,,,,,,,,,,,,,,,,,,,,,,,,,,,,,,,,,,,,,,,,,,,,,,,,,,,,,,,,,,,,",
",,,,,,,,,,,,,,,,,,,,,,,,,,,,,,,,,,,,,,,,,,,,,,,,,,,,,,,,,,,,,,,,",
",,,,,,,,,,,,,,,*,*,,,,,,,,,,,,,,,,,,,,,,,,,,,,,,,,,,,,,,,,,,,,,,",
",,,,,,,,,,,,,,,,*,,,,,,,,,,,,,,,,,,,,,,,,,,,,,,,,,,,,,,,,,,,,,,,",
",,,,,,,,,,,,,,,,,,,,,,,,,,*,,,,,,,,,,,,,,,,,,&,,,,,,,,,,,,,,,,,,",
",,,,,,,,,,,,&&&,,,,,,,,,,,,,,,,,,,,,,,,,,&,,&,,,,,,,,,,,,,,,,,,,",
",,,,,,,,,,,&***@,,,,,,,,,,,,,,XXXXXX  ,,,,&,&,,,,,,,,,,,,,,,,,,,",
",,,,*,,,,&&**&*&&@,,,,,,,,,,XX         ,,,,,,,;;,,,,,,,,,,,,,,,,",
",,*,,*,,,&****&&&@,,,,,,,,XX    XXXX  X ,,,,,===#,,,,,,,*,*,,,,,",
",,,*,*,&,&**&&&@@@,,,,2,,XX      XX    X ,,,,#####*,,,,,,*,,,,,,",
",,,&,&,&,,@@@@@@@*,,,2<*,X  XX            ,,,*****,;=,,,,,,,,,,,",
",,,,,&,&,,,******,,,,&2,X  XX             X,,,,,,,,,,,,,,,,,,,,,",
",,,,,,,,,,,,,,,,,&,,&,,,X                 X,,,,,,,,,,,,,,,,,,,,,",
",,,,,,,,,,,,,,,,,,&,&,,X X                 ,,,,,,,,,,,,,,,,,,,,,",
",,,,,,,,,,,,,,,,,,&,,,,X X                 ,,,,,,,,,,,,,,,,,&,,,",
",,,,,,,,,,,,,,,,,,,,,,,,X                  ,,,,,,,,,,,,,,,&,&,,,",
",,,,,,,,,,,,,,,,,,,,,,,,X O   OO           ,,,,,,,,,,,,,,,&,&,,,",
",,,,,,,,,&,&,,,,,,,,,,,* O+OOO+OO          ,,,,,,,2,,,,,,,,,&,,,",
",,,,,,,,,,&,,,,,,,,,,,,,  +++   +O    X   ,,,,,,,2<2,,,,,,,,,,*,",
",,,,,,,,,,,,,,,,,,,,,,,,* +++  ; +O  OOX ,,,,,,,,,2,,,,,,,,,,,,,",
",,,,,*,*,,,,,,,,,,,,,,,,, +++  ;+++O O+  ,,,,,,,,,,,,,,,,,,,,,,,",
",,,,,,*,,,,,,,,,,,,,,&,,,X+++XX1++++O++ ,,,,,,,,,,,,,2,,,,,,,,,,",
",,,,,,,,,,,,,,,,,,,,,,&,,%+++OO%%++++O *,,,,,,,,,,,,2<2,,,,,,,,,",
",,,,;;,,,,,,,,,,,,,,,,,2,OO+++++++OOOX,*,,,,,,,*,,,,,2,,,,,,,,,,",
",,,===#,,,,,,,,,,,,,,,2<2,OOOOOOOOOXXOO,,,,,,*,*,,,,,,,,,,,,,,,&",
",,,#####*,,,,,,*,,,,,,,2,,,,XXXXXXX==X1OO,,,,,*,,,,,,,,,,,,&,,&,",
",,,*****,,,,,,,,,,,,,,,,,,,X>>>>>>>>==X11O,,,,,,,,,,,,,,,,,,&,&,",
",&,,,,,,,,,,,,,,,,,,,,,,,,O>11111111>==X>O,,,,,,,,,,,,,,,,,,&,&,",
",&,&,,,,,,,,,,,,,,,,,,,,,,O>O111111O>>=O;O,,,,,,,,,,,&,,,,,,,,,,",
",&,&,,,,,,,,&,,,,,,,,,,,,O>O1111111>O>==O,,,,,,,,,,,,&,&,,,,,,,,",
",,,,,,,,&,,&,,,,,,,,,,,,,O>O1111111>O>>==O,,,,,,,,,,,&,&,,,,,,,,",
",,,,,,,,,&,&,,,,,,,,,,,,O>>O1111111>O>>==O,,,,,,,,,,,,,,,,,,,,,,",
",,,,,,,,,&,,,,,,*,,,,,,,X=>O111111>O>>==OX&,,,,,,,,,,,,,,,,,,,,,",
",,,,,,,,,,,,,,*,*,,,,,,,X=>OX111>XO>>==OX,&,,,,2,,,,,,,,,,,,,,,,",
",,,,,,,,,,,,,,*,&,,,,,,,X==X1>>>1X>===OO&,&,,,2<2,,,,,,,,*,,,,,,",
",,,,,,,,,,,,,,,,,,,,,,,*,X=X111111X=1OOX,,,,,,,2,,,,,,,,,,,,,,,,",
",,,,,,,,,,,,,,,,,,,,,,,,,,XX111111>XOOXX,,,,,,,,,,,,,,,,,,,,,,,,",
",,,,*,,,,,*,*,,,,,,,,,,,,,OX;1111>>>XX;X,,,,,,,,,,,,,,,,,,,,,&,&",
",,*,*,,,,,,*,,,,,,,,,,,,,,O;;>>>>>;;;;OX,,,,,,,,,,,,,,,,,,,,,,&,",
",,,*,,,,,,,,,,,,,,,,,,,,,,O;;;;;;;;;OOXX,,,,,,,,,,,,,,,,,,,,,,,,",
",,,,,,,,,,,,,,,,,,,,,,,,,,X;OOOOOOOOXXXX,,,,,,*,,,,,,,,,,,,,,,,,",
",,,,,,,2,,,,,,,,,,,,,,,,,,,X          X,,,,,,,,,,,,,,@,&,,,,,,,,",
",,,,,,2<2,,,,,,,,,,,*,*,,,,, O X OXXX ,,,,,,,,,,,,,,,,@,,,,,,,,,",
",,,,,,,2,,,,,,,,,*,,&,*,,,,, O   OXXX ,,,,,,,,,,,,,,,,,,,,,,,,,,",
",,,,,,,,,,,,,,,,,,*,&,*,,,,, OX  OXXX ,,,,&,,,,,,,,,,,,,,,,,,,,,",
",,,,,,,,,,,,,,,,,,*,&,*,,,,, OXX OXXX ,,,,,,,,,,,,,,,,,,,,,,,,,,",
",,,,,,,,,,,,,,*,*,,,&,,,,,,, XXX OXX. ,,,,,,,,,,,,,,,,,,,,*,,,,,",
",,,,,,,,,,,,,,,*,,,,,,,,,,,, XXX XXX. ,,,,,,,,,,,,,,,,,,,,&,,,,,",
",,,,,,,,,,,,,,,,,,,,,,,,,,,, XXX XXX..,,,,,,,,,,,,,,;;,&,,&,,,,,",
",,,,,&,,,,,,,,,,,,,,,,,,,,,, OXX OXX. ,,,,,,,,,,,,,;;=##,&,,&,&,",
",,,&,&,,,,,,,,,,,,,,,,,,,,,, OXX OXX. ,,*,,,,,,,,,===####&,,,&,,",
",,,&,&,,,,,,,,,,,,,,,,,,&,&, OXX OXX. ,,,*,,,,,,,,#######&,,,,,,",
",,,,,,,,,,;;,,,,,,,,,,,,,&,, XXX OX.. ,,,*,,,,,,*,*******,,,,,,,",
",,,,,,,,,===##,,,,,,,,,,,,,, ... .... $,,,,,,,,,,,,,,,,,,,,2,,,,",
",,,,,,,,,######*,,,,,,,2,,,,,        $o$o,,,,,,,,,*,*,,,,,2<2,,,",
",,,,,,,,,******,;=,,,,2<2,,OO>1 >111;O$o$$,,,,,,,,,*,,,,,,,2,,,,",
",,,,,,,,,,,,,,,,,,,,,,,2,,O>11O>1111;O$$$$$,,,,,*,,,,,,,,,,,,,,,",
",,,,,,,,,,,,,,,,,,,,,,,,,,O;;;O1111;;O$o$o$,,,,*,,,,,,,,,&&&,,,,",
",,,,,,*,*,,,,,,*,,,,,,,,,$OOOOO;;;;;;O$$o$$,,&,*,,*,,,,,&***&,,,",
",,,,,,,*,,,,,,,&,,,,,,,,,$$$$$OOOOOOO$$$$$$,,&,*,*,,,,&&**&*&@@,",
",,,,,,,,,,,,*,,&,*,,,,,,,$$$$$$$$$$$$:$$$$,,,&,*,&,,,,&****&&&@,",
",,,,,,,,,,,,,&,&,*,,,,,,,,$$$o$o$$$$:-:$$,,,,&,,,&,,,,@***&&@@@*",
",,,,,,,,,,,,,&,&,*,,,,,,,,,,$$o$$$$$$:$,,,,,,,,,,,,,,,,@@@@@@@**",
",,,,,,,,,,,,,,,,,,,,,,,,,,,,,,,,,,,,,,,,,,,,,,,,,,,,,,,********,"
};
