/* XPM */
static char *e98414e9efc04183eccdd77be22d91cdbN55Z63hqQ2U3DmC[] = {
/* columns rows colors chars-per-pixel */
"64 64 9 1 ",
"  c #5D7E57",
". c #686463",
"X c #6C9465",
"o c #85AC7E",
"O c #928B8B",
"+ c #ADA5A5",
"@ c #A8D0A1",
"# c #F0EBAF",
"$ c #F9F9F9",
/* pixels */
"@@@@@@@@@@@@@@@@@@@@@@@@@@@@@@@@@@@@@@@@@@@@@@@@@@@@@@@@@@@@@@@@",
"@@@@@@@@@@@@@@@@@@@@@@@@@@@@@@@@@@@@@@@@@@@@@@@@@@@@@@@@@@@@@@@@",
"@@@@@@@@@@@@@@@o@o@@@@@@@@@@@@@@@@@@@@@@@@@@@@@@@@@@@@@@@@@@@@@@",
"@@@@@@@@@@@@@@@@o@@@@@@@@@@@@@@@@@@@@@@@@@@@@@@@@@@@@@@@@@@@@@@@",
"@@@@@@@@@@@@@@@@@@@@@@@@@@o@@@@@@@@@@@@@@@@@@X@@@@@@@@@@@@@@@@@@",
"@@@@@@@@@@@@XXX@@@@@@@@@@@@@@@@@@@@@@@@@@X@@X@@@@@@@@@@@@@@@@@@@",
"@@@@@@@@@@@Xooo @@@@@@@@@@@@@@@X@@@@@@@@@@X@X@@@@@@@@@@@@@@@@@@@",
"@@@@o@@@@XXooXoXX @@@@@@@@@@@@@@@@@@@@@@@@X@@@++@@@@@@@@@@@@@@@@",
"@@o@@o@@@XooooXXX @@@@@@@@@@@@@@@@@@@@@@@@@@@OOO.@@@@@@@o@o@@@@@",
"@@@o@o@X@XooXXX   @@@@$@@@@@@@@@@@@@@@@@@@@@@.....o@@@@@@o@@@@@@",
"@@@X@X@X@@       @@@@$#$@@@@@@@@@@@@@@@@@@@@@ooooo@+O@@@@@@@@@@@",
"@@@@@X@X@@@@@@@@@@@@@X$@@@@@@@@@@@@@@@@@@@@@@@@@@@@@@@@@@@@@@@@@",
"@@@@@@@@@@@@@@@@@X@@X@@@@@@@@@@@@@@@@@@@@@@@@@@@@@@@@@@@@@@@@@@@",
"@@@@@@@@@@@@@@@@@@X@X@@@@@@@@@@@@@@@@@X@X@@@@@@@@@@@@@@@@@@@@@@@",
"@@@@@@@@@@@@@@@@@@X@@@@@@@@@@@@@@@@@@@@X@@@@@@@@@@@@@@@@@@@@X@@@",
"@@@@@@@@@@@@@@@@@@@@@@@@@@@@@@@@@X@@@@@@@@@@@@@@@@@@@@@@@@X@X@@@",
"@@@@@@@@@@@@@@@@@@@@@@@@@@@@@X@@X@@@@@@@@@@@@@@@@@@@@@@@@@X@X@@@",
"@@@@@@@@@X@X@@@@@@@@@@@@@@@@@@X@X@@@@@@@@@@@@@@@@@$@@@@@@@@@X@@@",
"@@@@@@@@@@X@@@@@@@@@@@@@@o@o@@X@X@@@@@@@@@@@@@@@@$#$@@@@@@@@@@o@",
"@@@@@@@@@@@@@@@@@@@@@@@@@@o@@@@@@@@@@@@@@@@@@@@@@@$@@@@@@@@@@@@@",
"@@@@@o@o@@@@@@@@@@@@@@@@@@@@@@@@@@@@@@@@@@@@@@@@@@@@@@@@@@@@@@@@",
"@@@@@@o@@@@@@@@@@@@@@X@X@@@@@@@@@@@@@@@@@@@@@@@@@@@@@$@@@@@@@@@@",
"@@@@@@@@@@@@@@@@@@@@@@X@@@@@@@@@@@@@@@@@@@@@@@@@@@@@$#$@@@@@@@@@",
"@@@@@@@@@@@@@@@@@@@@@@@@@@@@@@@@@@@@@@@@@@@@@@@o@@@@@$@@@@@@@@@@",
"@@@@@@@@@@@@@@@@@@@@@@@@@@@@@o@@@@@@@@@@@@@@@o@o@@@@@@@@@@@@@@@@",
"@@@@@@@@@@@@@@@o@@@@@@@@@o@@o@@@@@@@@o@o@@@@@@o@@@@@@@@@@@@@@@@@",
"@@@@@@@@@@@@@@@@@@@@@@@@@@o@o@@@@@@@@@o@@@@@@@@@@@@@@@@@@@@@@@@@",
"@X@@@@@@@@@@@@@@@@@@@@@@@@o@o@@@@@@@@@@@@@@@@@@@@@@@@@@@@@@@@@@@",
"@X@X@@@@@@@@@@@@@@@@@@@@@@@@@@@@@X@X@@@@@@@@@@@@@@@@@X@@@@@@@@@@",
"@X@X@@@@@@@@X@@@@@@@@@@@@@@@@@@@@@X@@@@@@o@@@@@@@@@@@X@X@@@@@@@@",
"@@@@@@@@X@@X@@@@@@@@@@@@@@@@@@@@@@@@@@@@@o@@@@@@@@@@@X@X@@@@@@@@",
"@@@@@@@@@X@X@@@@@@@@@@@@@$@@@@@@@@@@@@@o@o@@@@@@@@@@@@@@@@@@@@@@",
"@@@@@@@@@X@@@@@@o@@@@@@@$#$@@@@@@@@@@@@o@o@@@@@@@@@@@@@@@@@@@@@@",
"@@@@@@@@@@@@@@o@o@@@@@@@@$@@@@@@@@@@@@@@@@@@@@@$@@@@@@@@@@@@@@@@",
"@@@@@@@@@@@@@@o@X@@@@@@@@@@@@@@@@@@@@@@@@@@@@@$#$@@@@@@@@o@@@@@@",
"@@@@@@@@@@@@@@@@@@@@@@@@@@@@@@@@@@@@@@@@@@@@@@@$@@@@@@@@@@@@@@@@",
"@@@@@@@@@@@@@@@@@@@@@@@@@@@@@@@@@@@@@@@@@@@@@@@@@@@@@@@@@@@@@@@@",
"@@@@o@@@@@o@o@@@@++@@@@@@@@@X@X@@@@@@@@@@@@@@@@@@@@@@@@@@@@@@@@@",
"@@o@o@@@@@@o@@@@OOO.@@@@@@@@@X@@@@@@@@@@@@@@@@@@@@@@@@@@@@@@@@@@",
"@@@o@@@@@@@@@@@@.....o@@@@o@@@@@@@@@@@@@@@@@@@@@@@@@@@@@@@@@@@@@",
"@@@@@@@@@@@@@@@@ooooo@@@@@@@@@o@@@@@@@@@@@@@X@o@@@@@@@@@@@@@@@@@",
"@@@@@@@$@@@@@@@@@@@@@@@o@@@@@@@@@@@@@@@@@@X@X@@@@@@@@@@X@@@@@@@@",
"@@@@@@$#$@@@@@@@@@@@o@o@@@@@@@@@@@@@@@@@@@X@X@@@@++@X@@X@@@@@@@@",
"@@@@@@@$@@@@@@@@@o@@X@o@@o@@@@@@@@@@@@@@@@@@@@@@++O..@X@@@@@@@@@",
"@@@@@@@@@@@@@@@@@@o@X@o@o@@@@@@@@@@@@@@@@@@@@@@OOO....X@@@@@@@@@",
"@@@@@@@@@@@@@@@@@@o@X@o@X@@@@@@@@@@@@@@@o@@@@@@.......X@@@@@@@@@",
"@@@@@@@@@@@@@@o@o@@@X@@@X@@@@@@@@@@@X@@@@@@@@@@ooooooo@@@@o@@@@@",
"@@@@@@@@@@@@@@@o@@@@@@@@@@@@@@@@@@@@@@@@@@@@@@@@@@o@o@@@@@@@@@@@",
"@@@@@@@@@@@@@@@@@@@@@@@@@@@@@@@@@@@@@@@@@@@@@@@@@@o@o@@@@@@@@@@@",
"@@@@@X@@@@@@@@@@@@@@@@@@@@@@@@@@@@@@@X@X@@@@@@@@@@@@o@@@@@@@X@X@",
"@@@X@X@@@@@@@@@@@@@@@@@@@@@@@@@@@@@@@@X@@@@@@@@@@@@@@@@@@@@@@X@@",
"@@@X@X@@@@@@@@@@@@@@@@@@@@@@@@@@@@@@@@@@@@@@@@@@@@@@@@@@@@@@@@@@",
"@@@@@@@@@@++@@@@@@@@@@@@@@@@@@@@@X@@@@@@@@@@X@@@o@@@@@@@@@@@@@@@",
"@@@@@@@@@OOO..@@@@@@@@@@@@@@@@X@@X@@@@@@@@@@@@@@@@@@o@@@@@@$@@@@",
"@@@@@@@@@......o@@@@@@@$@@@@@@@X@X@@@@@@@@@@@@@@@@o@o@@@@@$#$@@@",
"@@@@@@@@@oooooo@+O@@@@$#$@@@@@@X@X@@@@@@@@@@@@@@@@@o@@@@@@@$@@@@",
"@@@@@@@@@@@@@@@@@@@@@@@$@@@@@@@@@@@@@@@@@@@@@@@@o@@@@@@@@@@@@@@@",
"@@@@@@@@@@@@@@@@@@@@@@@@@@@@@@@@@@@@@@@@@@@@@X@o@@@@@@@@@XXX@@@@",
"@@@@@@o@o@@@@@@o@@@@@@@@@@@@@@@@@@@@@@@@@@o@@X@o@@o@@@@@XoooX@@@",
"@@@@@@@o@@@@@@@X@@@@@@@@@@X@X@@@@@@@@@@@@@@o@X@o@o@@@@XXooXoX  @",
"@@@@@@@@@@@@o@@X@o@@@@@@@@@X@@@@@@@o@@@@@@@o@X@o@X@@@@XooooXXX @",
"@@@@@@@@@@@@@X@X@o@@@@@@@@@@@@@@@@@@@@@@@@@@@X@@@X@@@@ oooXX   @",
"@@@@@@@@@@@@@X@X@o@@@@@@@@@@@@@@@@@@@@@@@@@@@@@@@@@@@@@       @@",
"@@@@@@@@@@@@@@@@@@@@@@@@@@@@@@@@@@@@@@@@@@@@@@@@@@@@@@@@@@@@@@@@"
};
