/* XPM */
static char *b3d0c0dc02774e84d8ca1899e9212f05I8QsarVrss8aS5ql[] = {
/* columns rows colors chars-per-pixel */
"64 64 15 1 ",
"  c #6F5E5E",
". c #496544",
"X c #5D7E57",
"o c #686463",
"O c #907459",
"+ c #6C9465",
"@ c #BC936D",
"# c #B99C72",
"$ c #85AC7E",
"% c #928B8B",
"& c #ADA5A5",
"* c #A8D0A1",
"= c #F0EBAF",
"- c #F3F0D6",
"; c #F9F9F9",
/* pixels */
"****************************************************************",
"****************************************************************",
"***************$*$**********************************************",
"****************$***********************************************",
"**************************$******************+******************",
"************+++**************************+**+*******************",
"***********+$$$X***************+**********+*+*******************",
"****$****++$$+$++X************************+***&&****************",
"**$**$***+$$$$+++X***************************%%%o*******$*$*****",
"***$*$*+*+$$+++XXX****;**********************ooooo$******$******",
"***+*+*+**XXXXXXX$***;=;*********************$$$$$*&%***********",
"*****+*+***$$$$$$****+;*****************************************",
"*****************+**+*******************************************",
"******************+*+*****************+*************************",
"******************+********************+********************+***",
"*********************************+************************+*+***",
"*****************************+**+*************************+*+***",
"*********+*+******************+*+*****************;*********+***",
"**********+**************$*$**+*+****************;=;**********$*",
"**************************$***********************;*************",
"*****$*$********************* **** *****************************",
"******$**************+*+** * X ** X *****************;**********",
"**********************+** X * X  X *****************;=;*********",
"****&&******************** X  .X . ************$*****;**********",
"***%%%o******************** ......  *********$*$***************+",
"***ooooo$******$*********$** .======  *$******$************+**+*",
"***$$$$$******************$  ========= *********************+*+*",
"*+************************ #==----===== ********************+*+*",
"*+*+********************** ==---@--=O== *************+**********",
"*+*+********+************* =-@-----===== $***********+*+********",
"********+**+************* #=-------=====  ***********+*+********",
"*********+*+************* #=---@---=====## *********************",
"*********+******$******* ##==-----=====#O=# ********************",
"**************$*$******** ##==---@---=====## **;****************",
"**************$*+******** ###---------O===## *;=;********$******",
"************************ #===-----@---====## **;****************",
"************************ ===----------O==O#O *******************",
"****$*****$*$********** O===-@-------=====#O ****************+*+",
"**$*$******$*********** O#===-------====O##O *****************+*",
"***$******************** O#=O==O=========#O ********************",
"************************* O#========O===##O +*$*****************",
"*******;***************$* OO####=======##O *+********X*+********",
"******;=;***********$*$*** OOOO########OO +*+*********X*********",
"*******;*********$**+*$**$*   OOOOOOOOOO ***********************",
"******************$*+*$*$*****      OOOO ***********************",
"******************$*+*$*+***********    $***********************",
"**************$*$***+***+***********+*********************$*****",
"***************$******************************************+*****",
"****************************************************&&*+**+*****",
"*****+*******************************+*+***********&&%oo*+**+*+*",
"***+*+********************************+***********%%%oooo+***+**",
"***+*+********************************************ooooooo+******",
"**********&&*********************+**********+***$*$$$$$$$*******",
"*********%%%oo****************+**+*************************;****",
"*********oooooo$*******;*******+*+****************$*$*****;=;***",
"*********$$$$$$*&%****;=;******+*+*****************$*******;****",
"***********************;************************$***************",
"*********************************************+*$*********+++****",
"******$*$******$**************************$**+*$**$*****+$$$+***",
"*******$*******+**********+*+**************$*+*$*$****++$$+$+XX*",
"************$**+*$*********+*******$*******$*+*$*+****+$$$$+++X*",
"*************+*+*$***************************+***+****X$$$++XXX$",
"*************+*+*$*************************************XXXXXXX$$",
"*******************************************************$$$$$$$$*"
};
