/* XPM */
static char *f8a506c7dfcf4564ddea0b473ca7e229x9sVuHzLAgZhCDTW[] = {
/* columns rows colors chars-per-pixel */
"64 64 23 1 ",
"  c #423C3A",
". c #493E3E",
"X c #564444",
"o c #55534A",
"O c #6F5E5E",
"+ c #5D7E57",
"@ c #686463",
"# c #6F6D64",
"$ c #6C9465",
"% c #85AC7E",
"& c #928B8B",
"* c #B3AE81",
"= c #ADA5A5",
"- c #BDBBAA",
"; c #D88EA5",
": c #CBBCB4",
"> c #A8D0A1",
", c #F0EBAF",
"< c #EEA9C2",
"1 c #DBDFE4",
"2 c #F7F5E9",
"3 c #F9F9F9",
"4 c white",
/* pixels */
">>>>>>>>>>>>>>>>>>>>>>>>>>>>>>>>>>>>>>>>>>>>>>>>>>>>>>>>>>>>>>>>",
">>>>>>>>>>>>>>>>>>>>>>>>>>>>>>>>>>>>>>>>>>>>>>>>>>>>>>>>>>>>>>>>",
">>>>>>>>>>>>>>>%>%>>>>>>>>>>>>>>>>>>>>>>>>>>>>>>>>>>>>>>>>>>>>>>",
">>>>>>>>>>>>>>>>%>>>>>>>>>>>>>>>>>>>>>>>>>>>>>>>>>>>>>>>>>>>>>>>",
">>>>>>>>>>>>>>>>>>>>>>>>>>%>>>>>>>>>>>>>>>>>>$>>>>>>>>>>>>>>>>>>",
">>>>>>>>>>>>$$$>>>>>>>>>>>>>>>>>>>>>>>>>>$>>$>>>>>>>>>>>>>>>>>>>",
">>>>>>>>>>>$%%%+>>>>>>>>>>>>>>>$>>>>>>>>>>$>$>>>>>>>>>>>>>>>>>>>",
">>>>%>>>>$$%%$%$$+>>>>>>>>>>>>>>>>>>>>>>>>$>>>==>>>>>>>>>>>>>>>>",
">>%>>%>>>$%%%%$$$+>>>>>>>>>>>>>>>>>>>>>>>>>>>&&&@>>>>>>>%>%>>>>>",
">>>%>%>$>$%%$$$+++>>>>3>>>>>>>>>>>>>>>>>>>>>>@@@@@%>>>>>>%>>>>>>",
">>>$>$>$>>+++++++%>>>3,3>>>>>>>>>>>>>>>>>>>>>%%%%%>=&>>>>>>>>>>>",
">>>>>$>$>>>%%%%%%>>>>$3>>>>>>>>>>>>>>>>>>>>>>>>>>>>>>>>>>>>>>>>>",
">>>>>>>>>>>>>>>>>$>>$>>>>>>>............>>>>>>>>>>>>>>>>>>>>>>>>",
">>>>>>>>>>>>>>>>>>$>$>>>>>>>............>>>>>>>>>>>>>>>>>>>>>>>>",
">>>>>>>>>>>>>>>>>>$>>>>>....::22222222::....>>>>>>>>>>>>>>>>$>>>",
">>>>>>>>>>>>>>>>>>>>>>>>....::22222222::....>>>>>>>>>>>>>>$>$>>>",
">>>>>>>>>>>>>>>>>>>>....22222222222222222222..>>>>>>>>>>>>$>$>>>",
">>>>>>>>>$>$>>>>>>>>....22222222222222222222..>>>>3>>>>>>>>>$>>>",
">>>>>>>>>>$>>>>>>>..::2222222222222222222222::..>3,3>>>>>>>>>>%>",
">>>>>>>>>>>>>>>>>>..::2222222222222222222222::..>>3>>>>>>>>>>>>>",
">>>>>%>%>>>>>>>>>>....22222222..2222222222::22::..>>>>>>>>>>>>>>",
">>>>>>%>>>>>>>>>>>....22222222..2222222222::22::..>>>3>>>>>>>>>>",
">>>>>>>>>>>>>>>>..22..XO222222..XO22222222222222..>>3,3>>>>>>>>>",
">>>>==>>>>>>>>>>..22..XO222222..XO22222222222222..>>>3>>>>>>>>>>",
">>>&&&@>>>>>>>>>..2222222222222222222222::2222::22..>>>>>>>>>>>$",
">>>@@@@@%>>>>>>%..2222222222222222222222::2222::22..>>>>>>>$>>$>",
">>>%%%%%>>>>>>>>..22::222222::2222222222..22::22::..>>>>>>>>$>$>",
">$>>>>>>>>>>>>>>..22::222222::2222222222..22::22::..>>>>>>>>$>$>",
">$>$>>>>>>>>>>..==......::::  ::::2222..XO..::::::..>$>>>>>>>>>>",
">$>$>>>>>>>>$>..==......::::  ::::2222..XO..::::::..>$>$>>>>>>>>",
">>>>>>>>$>>$>>..&&..XXXXXXXX....XX&&==&&..XO..::::..>$>$>>>>>>>>",
">>>>>>>>>$>$>>..&&..OOOOXXXX....XX&&==&&..XO..::::..>>>>>>>>>>>>",
">>>>>>>>>$>>>>>>....OOOOOOOO1111OX====&&..XO;;..::..>>>>>>>>>>>>",
">>>>>>>>>>>>>>%>....OOOOOOOO4444OX====&&..XX<<..::..>>>>>>>>>>>>",
">>>>>>>>>>>>>>..==..;;OOOOOO....OX..&&..;;;;..::..>>>>>>>%>>>>>>",
">>>>>>>>>>>>>>..==..<<OOOOOO....OX..&&..<<<<..::..>>>>>>>>>>>>>>",
">>>>>>>>>>>>..====&&..OOOOOOOOOOXX====&&....::::..>>>>>>>>>>>>>>",
">>>>%>>>>>%>..====&&..OOOOOOOOXXXX====&&....::::#-#>>>>>>>>>>$>$",
">>%>%>>>>>>%>>..&&..::XXXXXXXX2222..======..::..-*-#>>>>>>>>>>$>",
">>>%>>>>>>>>>>..&&..::........2222..======..::###-##>>>>>>>>>>>>",
">>>>>>>>>>>>>>>>....::::::222222::::..====&&..#######>>>>>>>>>>>",
">>>>>>>3>>>>>>>>....::::::222222::::..====&&..##o#o##+>$>>>>>>>>",
">>>>>>3,3>>>>>>>>>>>....::::::::::::..&&&&....###o###>+>>>>>>>>>",
">>>>>>>3>>>>>>>>>%>>....::::::::::::..&&&&..#########>>>>>>>>>>>",
">>>>>>>>>>>>>>>>>>%>$>##..OO..::::::::......#########>>>>>>>>>>>",
">>>>>>>>>>>>>>>>>>%>$#o#..XX..::::::::#o#o#####o#####>>>>>>>>>>>",
">>>>>>>>>>>>>>%>%>>>$o##....##..OOOX..##o##o##o######>>>>>%>>>>>",
">>>>>>>>>>>>>>>%>>>>>###....##..XXXX..######o#o#####>>>>>>$>>>>>",
">>>>>>>>>>>>>>>>>>>>>###########....######-#o#o####>==>$>>$>>>>>",
">>>>>$>>>>>>>>>>>>>>>>#####o#o##....#####-*-######>==&@@>$>>$>$>",
">>>$>$>>>>>>>>>>>>>>>>######o#############-######>&&&@@@@$>>>$>>",
">>>$>$>>>>>>>>>>>>>>>>###############o#o#######>>>@@@@@@@$>>>>>>",
">>>>>>>>>>==>>>>>>>>>>>###############o######>>>%>%%%%%%%>>>>>>>",
">>>>>>>>>&&&@@>>>>>>>>>>###################>>>>>>>>>>>>>>>>3>>>>",
">>>>>>>>>@@@@@@%>>>>>>>3#o##############>>>>>>>>>>%>%>>>>>3,3>>>",
">>>>>>>>>%%%%%%>=&>>>>3,3>>>###o#o##>>>>>>>>>>>>>>>%>>>>>>>3>>>>",
">>>>>>>>>>>>>>>>>>>>>>>3>>>>>>>>>>>>>>>>>>>>>>>>%>>>>>>>>>>>>>>>",
">>>>>>>>>>>>>>>>>>>>>>>>>>>>>>>>>>>>>>>>>>>>>$>%>>>>>>>>>$$$>>>>",
">>>>>>%>%>>>>>>%>>>>>>>>>>>>>>>>>>>>>>>>>>%>>$>%>>%>>>>>$%%%$>>>",
">>>>>>>%>>>>>>>$>>>>>>>>>>$>$>>>>>>>>>>>>>>%>$>%>%>>>>$$%%$%$++>",
">>>>>>>>>>>>%>>$>%>>>>>>>>>$>>>>>>>%>>>>>>>%>$>%>$>>>>$%%%%$$$+>",
">>>>>>>>>>>>>$>$>%>>>>>>>>>>>>>>>>>>>>>>>>>>>$>>>$>>>>+%%%$$+++%",
">>>>>>>>>>>>>$>$>%>>>>>>>>>>>>>>>>>>>>>>>>>>>>>>>>>>>>>+++++++%%",
">>>>>>>>>>>>>>>>>>>>>>>>>>>>>>>>>>>>>>>>>>>>>>>>>>>>>>>%%%%%%%%>"
};
