/* XPM */
static char *c83e4cc387b04136881cb9f3323b7b1eHW1BWx0i8JCXnmm0[] = {
/* columns rows colors chars-per-pixel */
"64 64 18 1 ",
"  c #493E3E",
". c #384436",
"X c #55534A",
"o c #645353",
"O c #6F5E5E",
"+ c #496544",
"@ c #5D7E57",
"# c #686463",
"$ c #6F6D64",
"% c #6C9465",
"& c #85AC7E",
"* c #928B8B",
"= c #B3AE81",
"- c #ADA5A5",
"; c #BDBBAA",
": c #A8D0A1",
"> c #F0EBAF",
", c #F9F9F9",
/* pixels */
"::::::::::::::::::::::::::::::::::::::::::::::::::::::::&:&:::::",
":::::::::::::::::::::::::::::::::::::::::::::::::::::::::&::::::",
":::::::::::+:+::::::::::::@:@:::::::::@:::@:::::::::::::::::::::",
"::::::::::::+::::::::::::::@:::::::::::@:@::::::::::::::::::--::",
"::::::::,::::::::::::::::::::::::::::::@:@:::::::%:%:::::::-***:",
":::::::,>,::::::::::::::&::::::::::::::::@::::::::%::::::::*###&",
"::::::::,:::::%:%::::::::&::&::::::::::::::::::::::::::::::&&&&&",
":::::::::::::::%:::::::::&:&::::::::::::::::::::::::::::@::@::::",
":::&:&:::::::::::::::::::::&::%:%::::::::::::::::::::::::@:@::::",
"::::&::::::::::::::::::::::&:::%::::::&:&::::::::::::::::@:@::::",
":::::::::::::::::::::::::::::::::::::::&:::::::::::@:@::::::::::",
":::::::::::::&:::&::::::::::::::::::::::::::::::::::@:::::::::::",
"::::::@:@:::::&:&::::::::::::::::&::::::....++::::::::::::::::::",
":::::::@::::::&:&:::&:&::::::::&:&::::..++++++++++::::::::::::::",
"::::::::::::::::&::::&:::::,::&::&:::..++++++++@@+++::::::::::::",
"::::::::::::::::::::::::::,>,:&::&::...+++++++@@@@+++:::::::::::",
":::::::::::::::::::::::::::,:::::::..++++++++@@@%%@@@+::::::&:@:",
":::::::::::::::::::.....::::::::::..++++++++@@@%%%%%@@:::::::&::",
"::::::::::::::::+++++++.....::::....++++++++@@@%%%%%%%+:@::@::::",
"::::::::::::::::+++++++++...::::....+++++++@@@@%%%%%%%@::@:@::::",
"%:%:::::::::::@@%%%%@+++++...:::....+++++++@@@@@%%%%@@@+:@:@::::",
":%:::::::::::@%%%%@@@+++++.....:.....++++++@@@@@@@@@@@+.:::@::::",
":::::::::::::@%%%%@@@+++++.....:.....++++++@@@@@@@@@@@+.::::::::",
":::::::::::::%%%%@@@@@++++...........++++++@@@@@@@@@@@+.::::::::",
":::::::::::++%%%@@%%@@@@+............+++++++@@@@@@@@+++.::::::::",
":::::::::::++@@@@%%@@@@@+..........+++++++++@@@@@@@@++..::::::%:",
":::::::&:&:++@@@@%@@@@@@+..........+++++++++++@@@@@+++..:::::@::",
"::::::::&::++@@@@@@@@++++........++++++.++++++++++++...:::::::::",
":::::::::::+++@@@@@@@@++++.........++++....+++++++++..::::::::::",
":::::::::::.++@@@@@@@@++++.........++++....+++++++++...:::::::::",
":::::::::::.++++@@@@@@+++...........+... oo.++++++++++.:,:::::::",
"::::::&::&::..+++@@@@++++............   o  .++++++++...,>,::::::",
"::::::%:%:::::..+@@@@+++............   o ......++++..:::,:::::::",
":&:&::%:%:::::..+@@@@+++............   o ......++++..:::::::@:@:",
"::&::::::::::.++++++++....  .......  oo :::::.......:::::::::@::",
":::::::::::::...++++.....o   ...... o  :::::::.....:::::::::::::",
":::::::::::::.............oo   ..  oo  ::::::::::::::::@:@::&:&:",
"::::@:@::::::.............oo   ..  oo  :::::::::::::::::@::::&::",
":::::@::::::::..............o  ..ooo :::::::::::::::::::::::::::",
"::::::::::::::::::.........::oo  oo ::::::::::::::::::::::::::::",
"::::::::::::::::::::::....:::oo  oo ::::&::@:@::::::::::::::::::",
":::::::::::::::::::::::::::::oooooo :&::&:::@:::::::::::::::::::",
"::::::::::::::&:&:::::::::::::: Ooo ::&:&::::::::::&:&::::::::::",
"::::::::&:&::::&::::::::@:@:::: Oooo::&:&:::::::::::&::::::@::@:",
":::::::::&:::::::::::::::@::::: Oooo::::::::::::::::::::::::@:@:",
":&:::&:::::::::::---::::::::::: OOOo::::::::::::::::::::::::+:+:",
"::%:&:::::::::::---*#::::::::  oOOOo::::::::+:+:::::::::::::::::",
"::%:%::::::::::****###:::::::  oOOOo:::::::::+::::::::::::::::::",
"@:%::::::::::::########&*::::ooooOOo:::::$$$$$$:::::::::::::::::",
":::::::::::::::&&&&&&&&::::: ooO OOOo::$$$$$X$$$::::::::::::::::",
"::::::::::::::::::::::::$$$$ OOO   OO  $$X$X$$$$$$::::::::@:@:::",
"::::::::::::::::::::::$$$$$$ OOO   OO  $$X$X$$$$$$X$@::::::@::#:",
":::::::::::::::@:@::$$$$$$$$ OO    OOOO $$$X$$$$$$$X::::::::::::",
":::::::::@::::::@:::$$$;$$$$$   $$$  OO $$$$$$$$$$$$$:::::::::::",
"::::::::::@::::::::$$$;=;$$$$   $$$  OO $$$$$$$$$$$$X:&:::::::::",
"::::::::::::::::::$$$$$;$$$X$X$$$$$$$$$$$$$$$$$$$$$$$&::::::::::",
"::::::::::::::::::$$$$$$$$$$X$$$$$$$$$$$$X$X$$$$$$$$$:::::::::::",
"::::+:+:::::::::::$X$X$$$$$$$$$$$$$$$$$$$$X$$$$$$$$$$:::::::::::",
":::::+::::::::::::$$X$$$$$$$$$$$$$$$$$$$$$$$$$$$X$X$$:::::::::::",
":::::::::%::::::::$$$$$$$$$$$$$$$$$$$$$$$$$$$$$$$X$$::::::::%:%:",
"::::::::::::::::::$$$$$$$$$X$$X$$$$$$$$$$$$$$$$$$$$$:::::::::%::",
"::::::::::::::::::$$$$$$$$$$X$X$$$$$:$$$$$$$$$$$$$$:::::::::::::",
"::::::::::::::::::::$$$$$$$$X$X$$$$:&:&:$$$$$$$:::::::::::::::::",
"::::::::::::::+:+::::::$$$$$$$$$$::::%::::::::::::::::::::::::::"
};
