/* XPM */
static char *c216984253914a0cd9b1fb0d83c7680cdIWsSwVuxDJSWLRl[] = {
/* columns rows colors chars-per-pixel */
"32 32 14 1 ",
"  c black",
". c #443233",
"X c #4A474A",
"o c #63484A",
"O c #635552",
"+ c #605D60",
"@ c #7B787B",
"# c #7EB959",
"$ c #94D969",
"% c #807D80",
"& c #9D9D9D",
"* c #F7BED0",
"= c #D7C7C7",
"- c white",
/* pixels */
"$$$$$$$$$$$$$$$$$$$$$$$$$$$$$$$$",
"$$$$$$$$$$$$$$$$$$$$$$$$$$$$$$$$",
"$$$$$$$$$$$$$$$$$$$$$$$$$$$$$$$$",
"$$$$$$$$$$$$$$$$$$$$$$$$$$$$$$$$",
"$$$$$$$$$$$$$$$$$$$$$$$$$$$$$$$$",
"$$$$$$$$$$$$$$$$$$$$$$$$$$$$$$$$",
"$$$$$$$$$$$$$$$$$$$$$$$$$$$$$$$$",
"$$#$#$$$$$$$$$$$$$$$$$$$$$$$$$$$",
"$$$#$$$$$$$$$$$$$$$$$$$$$$$$$$$$",
"$$$$$$$$$$$$$$$$$$$$$$$$$$$$$$$$",
"$$$$$$$$$$$$$$$$$$$$$$$$$$$$$$$$",
"$$$$$$$$$$$$$$$$$$$$$$$$$$$#$#$$",
"$$$$$$$$$$$$$      $$$$$$$$$#$$$",
"$$$$$$$$$$$  =----=  $$$$$$$$$$$",
"$$$$$$$$$  ---------- $$$$$$$$$$",
"$$$$$$$$ O-----------& $$$$$$$$$",
"$$$$$$$$ +----O-------& $$$$$$$$",
"$$$$$$$ --=--=O=------- $$$$$$$$",
"$$$$$$$ --------------=- $$$$$$$",
"$$$$$$$ -=---=-----+-=-= $$$$$$$",
"$$$$$$ %%+-==+&&--+%.=== $$$$$$$",
"$$$$$$ %+%&++  +&&&+O.== $$$$$$$",
"$$$$$$$ .oOO&--+@&=++*+= $$$$$$$",
"$$$$$$ %.*OO&  @X&+**+= #$$$$$$$",
"$$$$$ %%O.OOOOXX@&&++== $#$$$$$$",
"$$$$$$ %O=....--X&&%+= $$$$$$$$$",
"$#$#$$#  ===---==X&&& #$$$$$$$$$",
"$$#$$$$$$  ======X&X& $$$$$$$$$$",
"$$$$$$$#$#$ . ====   #$#$$$$$$$$",
"$$$$$$$$#$$  $ OO $$$$#$$$$$#$#$",
"$$$$$$$$$$$$$$$  $$$$$$$$$$$$#$$",
"$$$$$$$$$$$$$$$$$$$$$$$$$$$$$$$$"
};
